<!--?xml version="1.0" encoding="utf-8"?-->
<!-- Generator: Adobe Illustrator 24.1.1, SVG Export Plug-In . SVG Version: 6.00 Build 0)  -->
<svg version="1.1" id="_x31_0" xmlns="http://www.w3.org/2000/svg" xmlns:xlink="http://www.w3.org/1999/xlink" x="0px" y="0px" viewBox="0 0 512 512" style="width: 256px; height: 256px; opacity: 1;" xml:space="preserve">
<style type="text/css">
	.st0{fill:#374149;}
</style>
<g>
	<path class="st0" d="M124.858,106.794L2.187,96.414l-0.378,4.286l-0.003,0.011H1.81l-0.015,0.153l117.81,9.983l4.706,0.404
		c-0.698,5.613,3.361,10.68,8.977,11.385l19.898,2.416c0.389,0.08,0.782,0.08,1.174,0.08c-3.593-4.058-7.338-8.192-11.16-12.25
		c-1.562-1.638-3.121-3.277-4.607-4.915c-0.465-0.473-0.937-1.018-1.402-1.486c-0.237-0.313-0.549-0.546-0.782-0.858
		c-1.718-1.795-3.357-3.59-4.995-5.384c-1.284-1.288-2.438-2.568-3.642-3.856l-0.202-0.274c-0.007,0.011-0.011,0.026-0.019,0.038
		c-0.038-0.038-0.076-0.08-0.114-0.122c-0.625,1.014-1.094,2.107-1.406,3.277L1.554,78.612l-0.701-0.118l0,0l-0.153-0.027L0,82.838
		l125.246,20.915L124.858,106.794z" style="fill: rgb(75, 75, 75);"></path>
	<path class="st0" d="M360.994,456.867l-14.358-53.535l-4.683-17.634l-0.019-0.062l-0.007-0.026l0,0l-0.05-0.149
		c-1.17,0.393-2.343,0.782-3.514,1.094c-1.013,0.313-2.106,0.625-3.197,0.858c-2.812,0.781-5.7,1.326-8.585,1.718
		c-6.558,0.858-13.267,0.858-19.978,0c-0.312-0.08-0.701-0.08-1.014-0.08c-1.486-0.153-3.044-0.465-4.606-0.778
		c-1.482-0.312-3.045-0.625-4.523-1.094c-1.95-0.545-3.826-1.094-5.776-1.718l-12.33,13.192l-44.978,48.205l-4.946,5.281
		c0,0.004,0.008,0.004,0.012,0.008l-0.11,0.114c5.62,4.294,11.629,8.196,17.794,11.706c12.642,7.178,26.062,12.722,40.187,16.701
		c14.126,3.746,28.951,5.929,43.778,6.085c7.804,0,15.607-0.389,23.411-1.326c1.326-0.156,2.652-0.312,4.058-0.545
		c2.263-0.312,4.607-0.701,6.87-1.17h0.076c1.059-0.141,2.058-0.366,3.106-0.636c0.057-0.008,0.118-0.023,0.179-0.027l-0.004-0.011
		c0.05-0.011,0.099-0.015,0.153-0.03L360.994,456.867z" style="fill: rgb(75, 75, 75);"></path>
	<path class="st0" d="M412.655,311.719l-21.693,9.362l-0.392,0.157c-0.077,1.406-0.153,2.808-0.313,4.294
		c-0.152,1.246-0.312,2.576-0.465,3.902c-0.312,1.714-0.705,3.509-1.094,5.228c-0.545,2.026-1.094,3.978-1.718,5.929l-0.156,0.392
		c-0.622,1.795-1.326,3.666-2.107,5.461l0.392,0.156l17.322,8.509l84.67,41.358c1.562-2.652,3.044-5.308,4.45-8.04
		c0.545-1.17,1.09-2.26,1.638-3.43c1.09-2.187,2.103-4.294,3.041-6.478l0.236-0.549c1.014-2.183,1.871-4.446,2.728-6.63
		c1.326-3.357,2.576-6.714,3.67-10.067v-0.08c4.839-14.826,7.883-30.434,8.817-46.277c0.782-13.462,0.126-27.042-2.03-40.413
		c-0.198-1.303-0.339-2.633-0.56-3.921l-0.038,0.015c-0.008-0.054-0.011-0.106-0.023-0.16L412.655,311.719z" style="fill: rgb(75, 75, 75);"></path>
	<path class="st0" d="M168.014,366.108c2.652,9.054,6.162,17.87,10.375,26.379c5.308,10.532,11.706,20.679,19.197,30.041
		c0.545,0.705,1.17,1.486,1.795,2.264c1.562,1.874,3.124,3.669,4.762,5.54l0.077,0.08c1.638,1.794,3.357,3.59,5.071,5.308
		c0.705,0.777,1.482,1.558,2.263,2.259c2.031,2.031,4.134,3.902,6.246,5.777c0.545,0.469,1.09,1.014,1.714,1.406l48.773-52.286
		l8.863-9.469l2.381-2.488c-0.011-0.004-0.026-0.011-0.038-0.019l0.11-0.118c-1.638-0.861-3.277-1.798-4.915-2.812
		c-1.018-0.625-2.031-1.25-3.045-1.95c-1.018-0.702-1.951-1.326-2.968-2.107l-0.313-0.157l-0.232-0.156h-0.077l-0.236-0.156
		c-0.858-0.625-1.714-1.326-2.572-2.103c-0.938-0.862-1.874-1.642-2.812-2.5l-1.794-1.638c-2.809-2.732-5.461-5.616-7.96-8.741
		c-4.37-5.54-8.116-11.626-11.157-18.183l-3.59-7.803c0,0-0.08,0.08-0.16,0.156c-1.326,1.33-2.884,2.419-4.679,3.201l-3.201,1.482
		l-55.875,25.598c-1.996,0.884-4.008,1.322-6.203,1.368c-0.069-0.004-0.133-0.004-0.202-0.011l0.007,0.03
		c-0.053,0-0.102,0.015-0.156,0.015L168.014,366.108z" style="fill: rgb(75, 75, 75);"></path>
	<path class="st0" d="M397.36,364.081l-12.806-6.374l-4.462-2.282c-0.004,0.004-0.004,0.007-0.008,0.011l-0.126-0.095
		c-1.406,2.263-2.888,4.37-4.526,6.478c-3.822,4.683-8.273,9.13-13.344,12.875c-0.782,0.625-1.558,1.17-2.42,1.718
		c-1.794,1.246-3.666,2.34-5.54,3.51c-1.014,0.469-1.951,1.094-2.888,1.482l0.08,0.312l4.995,17.871l22.397,80.844l1.166-0.312
		l2.812-0.858l2.576-0.781c3.589-1.014,7.102-2.416,10.612-3.666c7.022-2.809,13.969-5.853,20.602-9.522
		c13.344-7.098,25.75-16.152,37.067-26.531c9.819-9.161,18.629-19.529,26.196-30.769c0.469-0.678,0.979-1.338,1.437-2.02
		l-0.023-0.011c0.03-0.042,0.062-0.084,0.092-0.13L397.36,364.081z" style="fill: rgb(75, 75, 75);"></path>
	<path class="st0" d="M414.061,255.299c-0.392,0.857-0.781,1.638-1.094,2.263c-2.495,4.759-5.54,9.13-9.286,12.951
		c-4.958,5.613-11.103,10.052-17.898,13.253c-1.386,0.629-2.762,1.284-4.218,1.794c0.011,0.015,0.022,0.038,0.034,0.054
		c-0.061,0.019-0.118,0.038-0.16,0.038c0.469,0.625,0.861,1.326,1.174,2.031c0.232,0.389,0.465,0.781,0.701,1.17l0.153,0.237
		c0.392,0.857,0.861,1.638,1.25,2.495l0.392,0.938l0.782,1.794v0.077l0.701,1.874c1.638,4.214,2.652,8.661,3.354,13.188l0.148-0.058
		c0.004,0.011,0.004,0.023,0.008,0.034l0.034-0.05l0.202-0.084l21.54-9.21v-0.076l94.89-40.581
		c-0.312-1.246-0.625-2.495-0.938-3.746c-1.013-3.902-2.259-7.727-3.433-11.549c-2.576-7.571-5.464-15.062-9.054-22.318
		c-2.415-5.151-5.147-10.223-8.036-15.138c-0.469-0.781-0.937-1.482-1.406-2.263c-1.402-2.263-2.809-4.527-4.367-6.79l-0.236-0.392
		c-1.326-1.951-2.652-3.822-3.978-5.773c-1.95-2.576-3.902-5.072-5.852-7.571c-0.782-0.934-1.562-1.951-2.344-2.885
		c-5.761-6.778-12.059-13.066-18.686-18.998c-1.528-1.41-3.018-2.926-4.569-4.279v-0.213c-0.938-0.778-1.874-1.638-2.808-2.34
		c0.08,0.156,0.156,0.233,0.08,0.389c1.79,9.442,1.326,19.353-1.33,29.107c-3.669,13.424-7.959,26.692-12.718,39.41
		c-3.746,10.067-8.036,20.286-12.643,30.354C414.294,254.75,414.218,254.986,414.061,255.299z" style="fill: rgb(75, 75, 75);"></path>
	<path class="st0" d="M238.556,103.753c-0.317-0.091-0.606-0.152-0.907-0.229c-0.153-0.072-0.354-0.098-0.473-0.206
		c0.034,0.034,0.05,0.077,0.084,0.11c-0.084-0.018-0.186-0.053-0.263-0.068c1.482,1.406,1.951,3.513,1.25,5.464
		c-1.018,2.884-4.138,4.37-7.026,3.353c-2.267-0.819-3.594-3.014-3.517-5.35c0.057-0.522,0.098-1.04,0.331-1.543
		c-0.05,0.034-0.076,0.084-0.126,0.122c0.022-0.083,0.004-0.167,0.034-0.251c-1.951,1.406-3.514,3.277-4.37,5.697
		c-2.107,6.089,1.017,12.722,7.102,14.906c6.085,2.183,12.799-1.014,14.982-7.022C247.766,112.646,244.645,105.936,238.556,103.753z
		" style="fill: rgb(75, 75, 75);"></path>
	<path class="st0" d="M227.631,329.746l2.263-1.017c1.951-0.858,3.354-2.496,4.058-4.371c0.08-0.076,0.156-0.152,0.156-0.312
		c0.625-1.558,0.702-3.353,0.156-5.072l-28.018-88.96c-1.09-3.59-4.366-5.697-7.723-5.697c-2.031,0-4.058,0.781-5.697,2.343
		l-25.83,25.594c-1.482,1.482-3.433,2.263-5.54,2.339l-42.764,1.25c-6.165,0.232-9.91,6.866-6.79,12.174l48.46,84.434
		c1.014,1.794,2.732,3.121,4.603,3.67c0.785,0.232,1.562,0.388,2.423,0.388c1.17,0,2.263-0.232,3.353-0.701L227.631,329.746z
		 M199.458,313.194l-14.045-43.069l5.852-1.95l13.817,42.687l-5.346,2.226L199.458,313.194z M158.649,278.866l22.161,41.358v0.08
		l0.312,0.465l-5.616,2.419l-0.473-0.857l-21.772-40.581L158.649,278.866z" style="fill: rgb(75, 75, 75);"></path>
	<path class="st0" d="M106.438,42.258c5.308,13.035,19.201,28.951,34.183,45.107c5.384,5.696,10.768,11.469,15.996,17.09
		c1.718,1.794,3.357,3.589,4.919,5.384l0.152,0.08c1.486,1.638,2.969,3.277,4.374,4.915c1.246,1.326,2.34,2.576,3.51,3.822
		c7.883,9.286,14.514,18.027,18.259,25.674c0.313,0.625,0.625,1.326,0.858,1.951c0.705,1.718,1.406,3.357,2.187,4.995l0.388,0.781
		l0.313,0.782c1.174,2.415,2.343,4.759,3.513,7.098c0.157,0.313,0.313,0.705,0.469,1.014l1.094,2.107
		c0.702,1.174,1.326,2.343,1.951,3.59c0.465,0.781,0.934,1.638,1.402,2.419c0.469,0.782,0.937,1.562,1.406,2.343l0.702,1.17
		c0.21,0.346,0.43,0.75,0.693,1.109c0.019,0.053,0.046,0.083,0.065,0.145l-7.937,2.023l-1.326,0.392l-6.558,1.638l-0.625-1.094
		l-1.402-2.575c-0.469-0.782-0.938-1.638-1.326-2.496l-14.518-6.478l-71.09,2.964h-0.309c-3.281,0-6.089-2.495-6.325-5.616
		c-0.313-3.281,2.186-6.013,5.54-6.246h0.08l72.808-5.933h0.626c0.758,0,1.513,0.191,2.274,0.484
		c0.282,0.145,0.526,0.218,0.862,0.442c-0.027-0.058-0.069-0.126-0.096-0.183l0.237,0.118c-0.938-2.031-2.263-4.29-3.902-6.714
		c-1.17-1.791-2.495-3.666-3.982-5.617l-69.764,5.777c-4.915,0.388-9.13,2.495-12.174,6.005c-3.121,3.59-4.603,8.116-4.214,12.799
		c0.781,9.21,8.741,16.388,18.03,16.388h0.545l68.59-2.808l4.786,2.168l3.468,1.699l-60.615,15.486
		c-4.447,1.014-8.349,3.822-10.845,7.88c-2.499,3.982-3.277,8.665-2.187,13.187c1.951,8.04,9.054,13.581,17.326,13.581
		c1.17,0,2.42-0.08,3.59-0.313l86.621-19.353l2.729,0.701l14.049,3.746l15.839,4.138h0.08c0.393,0.389,0.858,0.781,1.246,1.17
		c0.938,0.782,1.874,1.562,2.812,2.34c0.701,0.625,1.482,1.25,2.263,1.874l0.545,0.389c0.858,0.701,1.638,1.326,2.496,1.95
		c1.33,1.014,2.576,2.031,3.902,2.965c0.785,0.549,1.562,1.094,2.343,1.638c1.795,1.33,3.59,2.5,5.461,3.75l1.638,1.09l0.625,0.393
		c1.018,0.621,2.031,1.246,3.045,1.87l1.638,1.014c0.781,0.469,1.642,0.938,2.495,1.406l1.33,0.781
		c0.857,0.469,1.718,1.014,2.572,1.402c1.017,0.625,2.11,1.174,3.201,1.798c1.014,0.465,2.03,1.014,3.044,1.482l0.469,0.232
		c1.014,0.549,2.107,1.014,3.121,1.562l1.562,0.702c0.701,0.312,1.406,0.625,2.107,0.937c4.054,1.795,8.116,3.434,12.25,4.992
		l1.794,0.625c1.094,0.392,2.187,0.781,3.277,1.174c12.799,4.214,25.598,8.428,38.394,12.562c1.798,0.625,3.513,1.17,5.227,1.718
		c3.826,1.246,7.651,1.791,11.474,1.791c2.968,0,5.853-0.313,8.741-1.014h0.08c0.076,0,0.076,0,0.152,0
		c0.08-0.076,0.08-0.076,0.157-0.076c9.446-2.263,18.263-8.116,24.348-16.621c1.406-1.798,2.576-3.67,3.59-5.621
		c0.392-0.781,0.781-1.562,1.094-2.343c4.446-9.674,8.505-19.429,12.174-29.34c4.683-12.486,8.818-25.206,12.326-38.081
		c4.138-15.138,1.018-30.277-7.254-41.358v-0.08c-0.389-0.625-0.862-1.17-1.326-1.718c-4.37-5.304-9.91-9.518-16.544-12.094
		c-39.876-15.683-79.987-30.746-120.332-45.259c-40.969-14.518-120.255-41.986-158.961-54.237c-0.545-0.236-1.09-0.312-1.638-0.389
		c-0.549-0.156-1.014-0.156-1.562-0.156h-0.545c-0.625,0.076-1.17,0.156-1.794,0.309c-1.482,0.312-2.808,1.018-4.058,1.874
		c-0.625,0.469-1.246,1.014-1.718,1.562c-2.103,2.263-3.509,5.384-3.509,8.581c0,0.313,0.08,0.705,0.08,1.018
		C105.662,39.838,105.974,41.011,106.438,42.258z M394.239,193.807c-0.857-0.625-1.326-1.642-1.25-2.656v-0.076
		c0.858-9.834-0.469-18.652-4.37-26.612c-3.902-7.959-10.067-14.437-18.335-19.901h-0.08c-1.246-0.858-1.638-2.572-0.782-3.902
		c0.625-0.934,1.638-1.326,2.652-1.246c11.317,1.094,21.933,9.286,27.001,19.898c5.231,10.612,5.151,23.959-0.934,33.634
		C397.284,194.196,395.566,194.585,394.239,193.807z M257.52,122.95c-4.527,12.639-18.419,19.197-31.058,14.67
		c-12.643-4.526-19.277-18.419-14.75-31.058c4.527-12.643,18.42-19.197,31.058-14.674C255.413,96.414,262.046,110.307,257.52,122.95
		z M339.222,215.812l2.732,0.701c3.201,0.782,5.152,4.058,4.294,7.179L344.842,229c-0.701,2.652-3.12,4.37-5.772,4.37l-1.562-0.237
		l-2.732-0.701l-22.474-5.933l-6.478-1.714l-58.84-15.531l-20.29-5.304l-1.794-0.469h-0.076l-13.112-3.513l-2.419-0.622
		l-6.786,1.482l-82.33,18.492h-0.08l-1.246,0.08c-2.732,0-5.227-1.875-5.932-4.607c-0.702-3.12,1.25-6.241,4.45-6.942h0.076
		l74.995-19.277l1.09-0.312l8.039-2.027h0.077l6.009-1.562l0.313-0.076l1.406-0.156l0.465,0.076l1.018,0.156l0.389,0.08l2.888,0.702
		l35.036,8.505l5.701,1.406l5.773,1.406l50.491,12.25l2.415,0.546L339.222,215.812z" style="fill: rgb(75, 75, 75);"></path>
</g>
</svg>
